<svg xmlns="http://www.w3.org/2000/svg" viewBox="0 0 237.31 73.39">
  <defs>
    <style>
      .cls-1 {
        fill: #fff;
      }

      .cls-2 {
        fill: #dc4764;
      }
    </style>
  </defs>
  <title>neg_small</title>
  <g id="Layer_2" data-name="Layer 2">
    <g id="Layer_1-2" data-name="Layer 1">
      <g>
        <g>
          <path class="cls-1" d="M12.79,39.89a15.26,15.26,0,0,1-7.7-1.73A19.7,19.7,0,0,1,0,34L5.42,28a20.26,20.26,0,0,0,3.36,2.93A7.71,7.71,0,0,0,12.57,32a5.31,5.31,0,0,0,3.9-1.52c1-1.08,1.41-2.71,1.41-5V0h8.89V25.8a17.6,17.6,0,0,1-1,6.18,11.8,11.8,0,0,1-2.71,4.34A12.26,12.26,0,0,1,18.64,39,17,17,0,0,1,12.79,39.89Z"/>
          <path class="cls-1" d="M80.11,40c-5.31,0-9.43-1.41-12.47-4.34s-4.55-7.26-4.55-13.12V0h8.67V22.22c0,3.25.76,5.64,2.28,7.26A8.16,8.16,0,0,0,80.33,32a8.1,8.1,0,0,0,6.29-2.38c1.52-1.63,2.28-3.9,2.28-7V0h8.67V22.22A23.63,23.63,0,0,1,96.37,30a14.55,14.55,0,0,1-3.47,5.53,14.74,14.74,0,0,1-5.42,3.36A23.8,23.8,0,0,1,80.11,40Z"/>
          <path class="cls-1" d="M134.31,0h8l18.43,24.28V0h8.56V39.35H162l-19.08-25v25h-8.56Z"/>
          <path class="cls-1" d="M215.39,31.65h21.36v7.7H206.83V0h29.59V7.7H215.28v24Z"/>
          <g>
            <rect class="cls-2" x="199.13" y="14.85" width="34.8" height="2.93"/>
            <rect class="cls-2" x="199.13" y="21.79" width="34.8" height="2.93"/>
          </g>
        </g>
        <g>
          <path class="cls-1" d="M91.95,64.12a14.33,14.33,0,0,1-.06,1.44,7.37,7.37,0,0,1-.19,1.12,3.35,3.35,0,0,1-.34.85,2.56,2.56,0,0,1-.53.64,4.06,4.06,0,0,1-1.62.82,9.44,9.44,0,0,1-2.44.27q-.77,0-1.49-.05T83.66,69L83.22,69l-.33-.05-.29-.06-.33-.1V54.9H84v5.34a2,2,0,0,1,.31-.35l.33-.25a3.4,3.4,0,0,1,1.15-.44,7.67,7.67,0,0,1,1.52-.14q2.82,0,3.85,1.43a3.54,3.54,0,0,1,.38.66,4.56,4.56,0,0,1,.26.83,8.94,8.94,0,0,1,.15,1Q91.95,63.43,91.95,64.12Zm-1.75,0a8.9,8.9,0,0,0-.15-1.8,2.53,2.53,0,0,0-.51-1.13,1.92,1.92,0,0,0-1-.6,5.65,5.65,0,0,0-1.52-.17,8.89,8.89,0,0,0-1.45.11,3,3,0,0,0-1,.32,1.05,1.05,0,0,0-.51.6A4.93,4.93,0,0,0,84,62.83v5q.62.09,1.23.13t1.19,0a7.37,7.37,0,0,0,1.27-.1,6,6,0,0,0,1-.27,2.58,2.58,0,0,0,.73-.43,1.85,1.85,0,0,0,.48-.66,3.55,3.55,0,0,0,.26-1A12,12,0,0,0,90.2,64.14Z"/>
          <path class="cls-1" d="M99.36,70.85q-.13.41-.27.78t-.22.54a1.81,1.81,0,0,1-.58.81,1.7,1.7,0,0,1-.66.32,4.38,4.38,0,0,1-1,.09l-.75,0-.73-.06V72h1.12l.41,0a.78.78,0,0,0,.26-.05l.2-.11a1.52,1.52,0,0,0,.37-.49A7,7,0,0,0,98,70.23l.36-1.11h-1.6l-3.51-9.94H95L97.86,68h.83l2.84-8.85h1.69Z"/>
          <path class="cls-1" d="M123.06,63a10.19,10.19,0,0,1-.22,2.09,4.78,4.78,0,0,1-.91,2A5,5,0,0,1,120,68.55a8,8,0,0,1-3.29.57h-6.95V54.9h6.39q.71,0,1.5,0a8,8,0,0,1,1.55.23,6,6,0,0,1,1.46.59,4,4,0,0,1,1.23,1.08,5.46,5.46,0,0,1,.84,1.73,8.79,8.79,0,0,1,.32,2.54Zm-1.82-2.22a6.94,6.94,0,0,0-.2-1.69,3.53,3.53,0,0,0-.74-1.44,3.67,3.67,0,0,0-1.46-1,6.46,6.46,0,0,0-2.38-.37h-4.87V67.68h5a4,4,0,0,0,4.62-4.55Z"/>
          <path class="cls-1" d="M133.39,69.12l-.19-.94a2.9,2.9,0,0,1-1.35.82,7.72,7.72,0,0,1-2.24.27,11.59,11.59,0,0,1-2.09-.16,3.65,3.65,0,0,1-1.39-.52,2,2,0,0,1-.77-1,4,4,0,0,1-.23-1.46,3.51,3.51,0,0,1,.45-1.9,1.94,1.94,0,0,1,.62-.63,3.05,3.05,0,0,1,.78-.34,3.83,3.83,0,0,1,.85-.14l.89,0h4.4V62a6.25,6.25,0,0,0,0-.73.77.77,0,0,0-.38-.58,2.66,2.66,0,0,0-1-.28,10.49,10.49,0,0,0-1.53-.11,9.39,9.39,0,0,0-1.52.12,1.82,1.82,0,0,0-1,.37.67.67,0,0,0-.11.14.86.86,0,0,0-.07.19c0,.08,0,.17-.06.29s0,.26-.07.45h-1.65a1.85,1.85,0,0,1,0-.3v-.32a2.87,2.87,0,0,0,0-.34A1.14,1.14,0,0,1,126,60a2,2,0,0,1,.8-.45,7.58,7.58,0,0,1,1.1-.27q.58-.1,1.12-.14t.87,0l1,0q.59,0,1.19.1a6.57,6.57,0,0,1,1.14.25,2.23,2.23,0,0,1,.87.47,2,2,0,0,1,.43.54,2.29,2.29,0,0,1,.21.69,6.47,6.47,0,0,1,.06,1v7Zm-.28-4.81h-3.25q-1.07,0-1.55.05a2.12,2.12,0,0,0-.76.2q-.62.34-.62,1.67a2.57,2.57,0,0,0,.11.83,1,1,0,0,0,.34.47,2.48,2.48,0,0,0,.9.35,7.25,7.25,0,0,0,1.45.12,13.59,13.59,0,0,0,1.46-.06,3.26,3.26,0,0,0,1-.24,1.27,1.27,0,0,0,.81-.85,4.84,4.84,0,0,0,.15-1.22Z"/>
          <path class="cls-1" d="M145.33,69.12V63.7q0-.7,0-1.17a6.51,6.51,0,0,0-.07-.78,1.66,1.66,0,0,0-.15-.49,1.16,1.16,0,0,0-.27-.33,3.69,3.69,0,0,0-2.35-.53,11.35,11.35,0,0,0-1.94.17,4.82,4.82,0,0,0-.54.11l-.67.19v8.25h-1.69V59.18h1.52l.13.81a6.81,6.81,0,0,1,.6-.38,3.54,3.54,0,0,1,.58-.25,9.07,9.07,0,0,1,4.05-.18,4.91,4.91,0,0,1,1.23.43,2.05,2.05,0,0,1,.78.69,2.72,2.72,0,0,1,.4,1q.06.38.1.82t0,1.29v5.71Z"/>
          <path class="cls-1" d="M159.09,66.2a3.44,3.44,0,0,1-.26,1.45,1.94,1.94,0,0,1-.81.87,5.08,5.08,0,0,1-1.67.54,15,15,0,0,1-2.44.17,16.49,16.49,0,0,1-1.75-.09,8.93,8.93,0,0,1-1.41-.26,1.5,1.5,0,0,1-1.3-1.5v-.65a5.21,5.21,0,0,1,0-.65h1.62q.08.75.13,1a.76.76,0,0,0,.19.44,1.72,1.72,0,0,0,1,.38A13.36,13.36,0,0,0,154,68a6.18,6.18,0,0,0,2.67-.45,1,1,0,0,0,.49-.49,2.11,2.11,0,0,0,.15-.88,2,2,0,0,0-.18-.94,1,1,0,0,0-.78-.43,1.42,1.42,0,0,0-.34,0l-.34,0a2.68,2.68,0,0,0-.42,0l-.8,0H154l-.6,0-1.24-.09a4.29,4.29,0,0,1-.79-.15A2.2,2.2,0,0,1,149.56,62a3.66,3.66,0,0,1,.24-1.4,2,2,0,0,1,.76-.92,3.67,3.67,0,0,1,1.38-.51,11.73,11.73,0,0,1,2.12-.16q.64,0,1.35,0t1.18.11a4.24,4.24,0,0,1,1.65.51,1,1,0,0,1,.42.52,2.9,2.9,0,0,1,.12.93v.3q0,.13,0,.38h-1.65l-.06-.36a2.88,2.88,0,0,0-.14-.59.87.87,0,0,0-.18-.29,2.06,2.06,0,0,0-.83-.27,9.36,9.36,0,0,0-1.45-.1,12.42,12.42,0,0,0-1.41.06,3.8,3.8,0,0,0-1,.23,1.09,1.09,0,0,0-.6.5,1.92,1.92,0,0,0-.17.88,2,2,0,0,0,.11.68.82.82,0,0,0,.3.42,1.71,1.71,0,0,0,.81.22q.58.05,1.86.1l.89,0h.48q.71,0,1.2.09a3.45,3.45,0,0,1,.9.24,1.85,1.85,0,0,1,1,.85A3.67,3.67,0,0,1,159.09,66.2Z"/>
          <path class="cls-1" d="M168.61,69.12l-4.55-4.77h-.83v4.77h-1.69V54.9h1.69v8.23h.83l3.83-4h1.92l-4.36,4.4,5.39,5.54Z"/>
          <path class="cls-1" d="M181.49,67.32a1.37,1.37,0,0,1-.33.85,2.23,2.23,0,0,1-1,.6,7.37,7.37,0,0,1-1.81.4q-.89.07-1.72.08a10.06,10.06,0,0,1-2-.17,4,4,0,0,1-1.34-.51A2.87,2.87,0,0,1,172.12,67a7.91,7.91,0,0,1-.38-2.69,8.21,8.21,0,0,1,.55-3.31q.87-2,4.45-2a8.43,8.43,0,0,1,2.4.3,3,3,0,0,1,1.51.92,2.94,2.94,0,0,1,.63,1.26,8.88,8.88,0,0,1,.18,2V64q0,.16,0,.46h-8v.38a3.77,3.77,0,0,0,.53,2.39,3.41,3.41,0,0,0,2.61.75,9.67,9.67,0,0,0,1.88-.14,1.84,1.84,0,0,0,.85-.33.85.85,0,0,0,.25-.53q0-.32.12-.83h1.71l0,.6A3.63,3.63,0,0,1,181.49,67.32Zm-1.65-4.06a8.18,8.18,0,0,0,0-1,3,3,0,0,0-.15-.64,1.73,1.73,0,0,0-.9-1,4.43,4.43,0,0,0-1.92-.33,4.1,4.1,0,0,0-2.52.58,1.8,1.8,0,0,0-.54.83,5.9,5.9,0,0,0-.22,1.56Z"/>
          <path class="cls-1" d="M201.15,65.16a3.84,3.84,0,0,1-1.08,2.95,4.43,4.43,0,0,1-3.13,1h-8.1V54.9h7.78a6.6,6.6,0,0,1,1.9.24,3,3,0,0,1,1.25.71,2.71,2.71,0,0,1,.69,1.18,5.63,5.63,0,0,1,.21,1.62,2.67,2.67,0,0,1-.64,1.85,4,4,0,0,1-1.9,1.08v.21a3.16,3.16,0,0,1,3,3.38Zm-2.29-6.71a2.53,2.53,0,0,0-.21-1.14,1.51,1.51,0,0,0-.61-.64,2.53,2.53,0,0,0-1-.29,11.75,11.75,0,0,0-1.28-.06h-5.13V61.1h4.89A9.45,9.45,0,0,0,197,61a2.46,2.46,0,0,0,1-.38,1.77,1.77,0,0,0,.63-.81A3.64,3.64,0,0,0,198.86,58.45Zm.47,6.86a4.5,4.5,0,0,0-.15-1.23,2,2,0,0,0-.5-.88,2.15,2.15,0,0,0-1-.52,5.55,5.55,0,0,0-1.5-.17h-5.58v5.17H196a13.08,13.08,0,0,0,1.35-.06,2.93,2.93,0,0,0,1.07-.3,1.61,1.61,0,0,0,.69-.72A2.87,2.87,0,0,0,199.33,65.31Z"/>
          <path class="cls-1" d="M211.59,69.12l-.19-.94A2.9,2.9,0,0,1,210,69a7.72,7.72,0,0,1-2.24.27,11.59,11.59,0,0,1-2.09-.16,3.65,3.65,0,0,1-1.39-.52,2,2,0,0,1-.77-1,4,4,0,0,1-.23-1.46,3.51,3.51,0,0,1,.45-1.9,1.94,1.94,0,0,1,.62-.63,3.05,3.05,0,0,1,.78-.34,3.83,3.83,0,0,1,.85-.14l.89,0h4.4V62a6.25,6.25,0,0,0,0-.73.77.77,0,0,0-.38-.58,2.66,2.66,0,0,0-1-.28,10.49,10.49,0,0,0-1.53-.11,9.39,9.39,0,0,0-1.52.12,1.82,1.82,0,0,0-1,.37.67.67,0,0,0-.11.14.86.86,0,0,0-.07.19c0,.08,0,.17-.06.29s0,.26-.07.45h-1.65a1.85,1.85,0,0,1,0-.3v-.32a2.87,2.87,0,0,0,0-.34,1.14,1.14,0,0,1,.32-.94,2,2,0,0,1,.8-.45,7.58,7.58,0,0,1,1.1-.27q.58-.1,1.12-.14t.87,0l1,0q.59,0,1.19.1a6.57,6.57,0,0,1,1.14.25,2.23,2.23,0,0,1,.87.47,2,2,0,0,1,.43.54,2.29,2.29,0,0,1,.21.69,6.47,6.47,0,0,1,.06,1v7Zm-.28-4.81h-3.25q-1.07,0-1.55.05a2.12,2.12,0,0,0-.76.2q-.62.34-.62,1.67a2.57,2.57,0,0,0,.11.83,1,1,0,0,0,.34.47,2.48,2.48,0,0,0,.9.35,7.25,7.25,0,0,0,1.45.12,13.59,13.59,0,0,0,1.46-.06,3.26,3.26,0,0,0,1-.24,1.27,1.27,0,0,0,.81-.85,4.84,4.84,0,0,0,.15-1.22Z"/>
          <path class="cls-1" d="M223.53,69.12V63.7q0-.7,0-1.17a6.51,6.51,0,0,0-.07-.78,1.66,1.66,0,0,0-.15-.49,1.16,1.16,0,0,0-.27-.33,3.69,3.69,0,0,0-2.35-.53,11.35,11.35,0,0,0-1.94.17,4.82,4.82,0,0,0-.54.11l-.67.19v8.25h-1.69V59.18h1.52l.13.81a6.81,6.81,0,0,1,.6-.38,3.54,3.54,0,0,1,.58-.25,9.07,9.07,0,0,1,4.05-.18,4.91,4.91,0,0,1,1.23.43,2.05,2.05,0,0,1,.78.69,2.72,2.72,0,0,1,.4,1q.06.38.1.82t0,1.29v5.71Z"/>
          <path class="cls-1" d="M235.09,69.12l-4.55-4.77h-.83v4.77H228V54.9h1.69v8.23h.83l3.83-4h1.92l-4.36,4.4,5.39,5.54Z"/>
        </g>
      </g>
    </g>
  </g>
</svg>
