<?xml version="1.0" encoding="UTF-8"?>
<svg width="81px" height="29px" viewBox="0 0 81 29" version="1.1" 
    xmlns="http://www.w3.org/2000/svg" 
    xmlns:xlink="http://www.w3.org/1999/xlink">
    <!-- Generator: Sketch 47.1 (45422) - http://www.bohemiancoding.com/sketch -->
    <title>Group</title>
    <desc>Created with Sketch.</desc>
    <defs></defs>
    <g id="Page-1" stroke="none" stroke-width="1" fill="" fill-rule="evenodd">
        <g id="Logo-with-danskebank" transform="translate(-573.000000, -185.000000)">
            <g id="Group" transform="translate(573.000000, 185.000000)">
                <path d="M15.2794596,25.4920904 C15.2794596,26.264599 15.1523802,26.7773999 14.8982176,27.0305085 C14.623307,27.2994364 14.164265,27.4338983 13.5210779,27.4338983 C13.1865169,27.4338983 12.8376969,27.4075332 12.4746074,27.3548023 C12.3760546,27.338983 12.2178537,27.3033901 12,27.2480226 L12,22 L12.5718631,22 L12.5718631,24.0248588 C12.6367005,23.9325796 12.710614,23.8574391 12.7936059,23.799435 C13.0010856,23.6517883 13.3019266,23.5779661 13.6961381,23.5779661 C14.3341381,23.5779661 14.769839,23.7598852 15.0032536,24.1237288 C15.1044,24.2792851 15.1757201,24.470432 15.217216,24.6971751 C15.258712,24.9239183 15.2794596,25.1888874 15.2794596,25.4920904 Z M14.6920356,25.5 C14.6920356,24.9542346 14.6174737,24.5844642 14.4683477,24.390678 C14.3192217,24.1968917 14.0371832,24.1 13.6222238,24.1 C13.1450205,24.1 12.8376958,24.1804135 12.7002405,24.3412429 C12.6146551,24.4387952 12.5718631,24.6602619 12.5718631,25.0056497 L12.5718631,26.9158192 C12.8753021,26.9606405 13.1489119,26.9830508 13.3927005,26.9830508 C13.6961396,26.9830508 13.9541886,26.9369119 14.1668553,26.8446328 C14.3613675,26.7576267 14.497524,26.6185509 14.5753289,26.4274011 C14.6531338,26.2362514 14.6920356,25.9271208 14.6920356,25.5 Z M19.247489,23.6214689 L17.9403735,28.0350282 C17.8885035,28.2169501 17.8327442,28.3843684 17.7730938,28.5372881 C17.7264109,28.666479 17.6602777,28.7693028 17.5746923,28.8457627 C17.457985,28.9485881 17.2751462,29 17.0261706,29 C16.8342519,29 16.6669739,28.9881357 16.5243316,28.9644068 L16.5243316,28.4700565 L16.6916113,28.4700565 C16.9613349,28.4700565 17.1312063,28.4463279 17.2012307,28.3988701 C17.2868161,28.3276833 17.3775871,28.1273086 17.4735465,27.7977401 L17.5902532,27.3864407 L17.049512,27.3864407 L15.8629934,23.6214689 L16.4426369,23.6214689 L17.430754,26.9751412 L17.7108502,26.9751412 L18.675626,23.6214689 L19.247489,23.6214689 Z M26.3004668,25.0847458 C26.3004668,26.6192167 25.5833759,27.3864407 24.1491724,27.3864407 L21.7994766,27.3864407 L21.7994766,22 L23.9663319,22 C24.6510149,22 25.1606293,22.1080968 25.4951903,22.3242938 C26.032044,22.6802278 26.3004668,23.3578104 26.3004668,24.3570621 L26.3004668,25.0847458 Z M25.6858113,25.120339 L25.6858113,24.2423729 C25.6858113,23.1033841 25.1437787,22.5338983 24.0596973,22.5338983 L22.4141321,22.5338983 L22.4141321,26.8446328 L24.1258311,26.8446328 C25.1658231,26.8446328 25.6858113,26.2698739 25.6858113,25.120339 Z M30.4357759,27.3864407 L29.9572783,27.3864407 L29.8950347,27.0305085 L29.8366813,27.0305085 C29.6240146,27.2994364 29.2362927,27.4338983 28.673504,27.4338983 C28.1159023,27.4338983 27.7229935,27.3488709 27.4947659,27.1788136 C27.2665382,27.0087562 27.1524261,26.7048986 27.1524261,26.2672316 C27.1524261,25.8295647 27.2665382,25.5250479 27.4947659,25.3536723 C27.6970586,25.198116 28.0290211,25.120339 28.4906635,25.120339 L29.8639129,25.120339 L29.8639129,24.6971751 C29.8639129,24.4335203 29.8159339,24.2687386 29.7199745,24.2028249 C29.5695518,24.1052726 29.3037224,24.0564972 28.9224784,24.0564972 C28.4556491,24.0564972 28.1612917,24.1184551 28.0393974,24.2423729 C27.9953079,24.2871942 27.9551093,24.4229744 27.9188004,24.6497175 L27.358608,24.6497175 C27.348234,24.4493399 27.3430471,24.3280605 27.3430471,24.2858757 C27.3430471,24.1224097 27.3780588,24.0037668 27.4480832,23.9299435 C27.6451889,23.7084735 28.0860766,23.5937854 28.7707597,23.5858757 C29.5047191,23.5806026 29.9806185,23.6860629 30.1984722,23.9022599 C30.3151795,24.0156315 30.3864996,24.1725037 30.4124346,24.3728814 C30.4279956,24.4967991 30.4357759,24.7934063 30.4357759,25.2627119 L30.4357759,27.3864407 Z M29.8639129,26.0655367 L29.8639129,25.5632768 L28.8563446,25.5632768 C28.4439787,25.5632768 28.1820395,25.5883237 28.0705192,25.6384181 C27.8682265,25.7280607 27.7670816,25.9468909 27.7670816,26.2949153 C27.7670816,26.5427508 27.817654,26.7062143 27.9188004,26.7853107 C28.0666297,26.9065919 28.3324591,26.9672316 28.7162965,26.9672316 C29.1027274,26.9672316 29.3763372,26.9290023 29.537134,26.8525424 C29.7549877,26.749717 29.8639129,26.4873844 29.8639129,26.0655367 Z M34.8200594,27.3864407 L34.2443061,27.3864407 L34.2443061,25.3299435 C34.2443061,24.9634633 34.2339323,24.7136541 34.2131843,24.5805085 C34.1924364,24.4473628 34.1444574,24.3465164 34.069246,24.2779661 C33.9317907,24.1408656 33.6672581,24.0723164 33.2756401,24.0723164 C33.0629734,24.0723164 32.8425296,24.0947267 32.6143019,24.139548 C32.4846271,24.1606404 32.3458771,24.1975515 32.1980478,24.2502825 L32.1980478,27.3864407 L31.6261848,27.3864407 L31.6261848,23.6214689 L32.1435847,23.6214689 L32.1824869,23.9180791 C32.3303162,23.8047075 32.4625825,23.7269305 32.5792899,23.6847458 C32.7867696,23.6030128 33.0655662,23.5621469 33.4156882,23.5621469 C34.224859,23.5621469 34.6774174,23.8482081 34.7733767,24.420339 C34.8044987,24.6101704 34.8200594,24.8777761 34.8200594,25.2231638 L34.8200594,27.3864407 Z M39.118758,26.2830508 C39.118758,26.7101716 38.9968655,27.0028241 38.7530768,27.1610169 C38.4781662,27.3323926 38.0165308,27.4180791 37.3681567,27.4180791 C36.9272624,27.4180791 36.5680685,27.3772132 36.2905644,27.2954802 C36.0908652,27.2322031 35.9585989,27.1306975 35.8937615,26.9909605 C35.8522656,26.8881351 35.8367048,26.7233533 35.8470788,26.4966102 L35.8704201,26.2355932 L36.4189419,26.2355932 L36.4500637,26.6073446 C36.4708116,26.7444451 36.5369448,26.8340864 36.6484651,26.8762712 C36.8144489,26.9421849 37.0647175,26.9751412 37.3992785,26.9751412 C37.8090509,26.9751412 38.1111887,26.9184563 38.3057009,26.8050847 C38.4509367,26.7233518 38.5235535,26.5493422 38.5235535,26.2830508 C38.5235535,26.1116752 38.4995641,25.9897367 38.4515844,25.9172316 C38.4036047,25.8447266 38.3238559,25.7966103 38.2123355,25.7728814 C38.1060022,25.7570621 37.9944835,25.746516 37.8777762,25.7412429 L37.1775357,25.7096045 C36.8585357,25.6885121 36.6303114,25.6595105 36.4928561,25.6225989 C36.0882707,25.5092273 35.885981,25.2033923 35.885981,24.7050847 C35.885981,24.2885102 35.9987964,23.9951986 36.2244306,23.8251412 C36.4500648,23.6550839 36.8442703,23.5700565 37.407059,23.5700565 C37.736433,23.5700565 38.0217133,23.5891712 38.2629085,23.6274011 C38.5041036,23.6656311 38.6888875,23.7308847 38.8172655,23.8231638 C38.9456436,23.915443 39.0098317,24.0670423 39.0098317,24.2779661 C39.0098317,24.4282493 39.0046447,24.5468922 38.9942708,24.6338983 L38.4340784,24.6338983 L38.4185175,24.4480226 C38.3977695,24.2951028 38.3601644,24.197552 38.3057009,24.1553672 C38.2123351,24.0683611 37.9555828,24.0248588 37.5354364,24.0248588 C37.1697534,24.0248588 36.9000339,24.0637473 36.7262696,24.1415254 C36.5525054,24.2193036 36.4656246,24.3939723 36.4656246,24.6655367 C36.4656246,24.8764606 36.5097133,25.0155364 36.5978922,25.0827684 C36.6860711,25.1500003 36.9908023,25.1915253 37.5120951,25.2073446 C37.6443634,25.2073446 37.7973774,25.2099811 37.9711416,25.2152542 C38.2745807,25.2205273 38.511882,25.2613932 38.6830528,25.3378531 C38.9735243,25.467044 39.118758,25.7821067 39.118758,26.2830508 Z M43.30464,27.3864407 L42.5460461,27.3864407 L41.0094073,25.579096 L40.7215306,25.579096 L40.7215306,27.3864407 L40.1496676,27.3864407 L40.1496676,22 L40.7215306,22 L40.7215306,25.120339 L41.0094073,25.120339 L42.3087424,23.6214689 L42.9506295,23.6214689 L41.4801245,25.2903955 L43.30464,27.3864407 Z M47.1053897,25.2824859 C47.1053897,25.4011305 47.1027963,25.5171369 47.0976093,25.6305085 L44.4016834,25.6305085 L44.4016834,25.7728814 C44.4016834,26.2210945 44.4626297,26.524293 44.584524,26.6824859 C44.7349468,26.8723173 45.0306009,26.9672316 45.4714953,26.9672316 C45.9642595,26.9672316 46.2612104,26.9158197 46.3623568,26.8129944 C46.4479421,26.7312614 46.4959211,26.5664796 46.5062951,26.3186441 L47.0859386,26.3186441 C47.0989061,26.4267425 47.1053897,26.507156 47.1053897,26.559887 C47.1053897,26.6020718 47.1027963,26.6534837 47.0976093,26.7141243 C47.0483329,27.1887029 46.5322348,27.4259887 45.5492998,27.4259887 C44.9865111,27.4259887 44.5832285,27.3429387 44.3394398,27.1768362 C43.9841308,26.9290006 43.806479,26.3964259 43.806479,25.579096 C43.806479,24.8830474 43.9102173,24.3926568 44.117697,24.1079096 C44.3666726,23.7546122 44.828308,23.5779661 45.5026171,23.5779661 C46.1561781,23.5779661 46.5996593,23.7322018 46.833074,24.040678 C47.0146187,24.2779673 47.1053897,24.6918991 47.1053897,25.2824859 Z M46.5529778,25.1677966 C46.5529778,24.914688 46.5322301,24.7116768 46.4907342,24.5587571 C46.3947748,24.2133693 46.0757796,24.040678 45.5337389,24.040678 C45.1239665,24.040678 44.8412796,24.1125228 44.6856698,24.2562147 C44.5300601,24.3999066 44.4405858,24.7037642 44.4172443,25.1677966 L46.5529778,25.1677966 Z M54.1389164,25.8875706 C54.1389164,26.8868223 53.663017,27.3864407 52.7112038,27.3864407 L49.9724855,27.3864407 L49.9724855,22 L52.610058,22 C53.1028223,22 53.4581259,22.1186429 53.6759796,22.3559322 C53.8782723,22.5774022 53.9794172,22.9306944 53.9794172,23.4158192 C53.9794172,23.9668577 53.6928401,24.3372872 53.1196775,24.5271186 L53.1196775,24.6101695 C53.7991735,24.7340872 54.1389164,25.1598834 54.1389164,25.8875706 Z M53.3647616,23.3446328 C53.3647616,22.999245 53.2636168,22.7698687 53.0613241,22.6564972 C52.9238688,22.5747642 52.6774903,22.5338983 52.3221814,22.5338983 L50.587141,22.5338983 L50.587141,24.3491525 L52.2443769,24.3491525 C52.6411818,24.3491525 52.9199784,24.2871946 53.0807752,24.1632768 C53.2701004,24.0182667 53.3647616,23.7453881 53.3647616,23.3446328 Z M53.5242609,25.9429379 C53.5242609,25.5711846 53.4471055,25.3016016 53.2927925,25.1341808 C53.1384794,24.96676 52.8655181,24.8830508 52.4739001,24.8830508 L50.587141,24.8830508 L50.587141,26.8446328 L52.384425,26.8446328 C52.7786364,26.8446328 53.0522461,26.7984939 53.2052624,26.7062147 C53.4179291,26.5770238 53.5242609,26.3226008 53.5242609,25.9429379 Z M58.2742255,27.3864407 L57.7957278,27.3864407 L57.7334842,27.0305085 L57.6751309,27.0305085 C57.4624642,27.2994364 57.0747423,27.4338983 56.5119536,27.4338983 C55.9543519,27.4338983 55.5614431,27.3488709 55.3332154,27.1788136 C55.1049878,27.0087562 54.9908757,26.7048986 54.9908757,26.2672316 C54.9908757,25.8295647 55.1049878,25.5250479 55.3332154,25.3536723 C55.5355082,25.198116 55.8674707,25.120339 56.329113,25.120339 L57.7023624,25.120339 L57.7023624,24.6971751 C57.7023624,24.4335203 57.6543835,24.2687386 57.5584241,24.2028249 C57.4080013,24.1052726 57.1421719,24.0564972 56.760928,24.0564972 C56.2940987,24.0564972 55.9997413,24.1184551 55.8778469,24.2423729 C55.8337575,24.2871942 55.7935589,24.4229744 55.75725,24.6497175 L55.1970576,24.6497175 C55.1866836,24.4493399 55.1814967,24.3280605 55.1814967,24.2858757 C55.1814967,24.1224097 55.2165083,24.0037668 55.2865327,23.9299435 C55.4836385,23.7084735 55.9245262,23.5937854 56.6092092,23.5858757 C57.3431687,23.5806026 57.8190681,23.6860629 58.0369218,23.9022599 C58.1536291,24.0156315 58.2249492,24.1725037 58.2508841,24.3728814 C58.2664451,24.4967991 58.2742255,24.7934063 58.2742255,25.2627119 L58.2742255,27.3864407 Z M57.7023624,26.0655367 L57.7023624,25.5632768 L56.6947942,25.5632768 C56.2824283,25.5632768 56.0204891,25.5883237 55.9089687,25.6384181 C55.706676,25.7280607 55.6055312,25.9468909 55.6055312,26.2949153 C55.6055312,26.5427508 55.6561036,26.7062143 55.75725,26.7853107 C55.9050793,26.9065919 56.1709086,26.9672316 56.5547461,26.9672316 C56.941177,26.9672316 57.2147868,26.9290023 57.3755835,26.8525424 C57.5934372,26.749717 57.7023624,26.4873844 57.7023624,26.0655367 Z M62.658509,27.3864407 L62.0827557,27.3864407 L62.0827557,25.3299435 C62.0827557,24.9634633 62.0723819,24.7136541 62.0516339,24.5805085 C62.0308859,24.4473628 61.982907,24.3465164 61.9076956,24.2779661 C61.7702403,24.1408656 61.5057076,24.0723164 61.1140897,24.0723164 C60.901423,24.0723164 60.6809791,24.0947267 60.4527514,24.139548 C60.3230766,24.1606404 60.1843267,24.1975515 60.0364974,24.2502825 L60.0364974,27.3864407 L59.4646343,27.3864407 L59.4646343,23.6214689 L59.9820342,23.6214689 L60.0209365,23.9180791 C60.1687658,23.8047075 60.3010321,23.7269305 60.4177394,23.6847458 C60.6252191,23.6030128 60.9040158,23.5621469 61.2541378,23.5621469 C62.0633086,23.5621469 62.5158669,23.8482081 62.6118263,24.420339 C62.6429482,24.6101704 62.658509,24.8777761 62.658509,25.2231638 L62.658509,27.3864407 Z M67,27.3864407 L66.2414061,27.3864407 L64.7047673,25.579096 L64.4168906,25.579096 L64.4168906,27.3864407 L63.8450276,27.3864407 L63.8450276,22 L64.4168906,22 L64.4168906,25.120339 L64.7047673,25.120339 L66.0041024,23.6214689 L66.6459895,23.6214689 L65.1754845,25.2903955 L67,27.3864407 Z" id="by-Danske-Bank-Copy" fill="#ffffff"></path>
                <g id="Sunday-logo-brand-color-(1)" fill-rule="nonzero" fill="#ffffff">
                    <path d="M77.0996019,4.29545455 L74.5932203,11.7023203 L72.086716,4.29545455 L68.1864407,4.29545455 L72.806561,16.3249006 C72.2982618,17.7591234 71.7348355,18.0271649 70.4381815,18.0271649 L70.4381815,20.4762364 C70.893809,20.8018542 71.5506691,21 72.3145913,21 C74.0301624,21 74.9818114,19.9950066 75.517981,18.5793277 L81,4.29545455 L77.0996019,4.29545455 Z" id="Fill-1"></path>
                    <path d="M60.1321729,13.4475097 C58.4813693,13.4475097 57.136898,12.0172625 57.136898,10.2614285 C57.136898,8.50546479 58.4813693,7.07521759 60.1321729,7.07521759 C61.7829764,7.07521759 63.1275698,8.50546479 63.1275698,10.2614285 C63.1275698,12.0172625 61.7829764,13.4475097 60.1321729,13.4475097 M66.7219729,12.0315313 L66.7219729,4.10148127 L63.3937812,4.10148127 L63.3937812,5.24298093 C62.3549103,4.3526112 61.0354382,3.81818182 59.5996281,3.81818182 C56.2581441,3.81818182 53.5423729,6.70695424 53.5423729,10.2614285 C53.5423729,13.815773 56.2581441,16.7045455 59.5996281,16.7045455 C61.1789704,16.7045455 62.6179511,16.0586901 63.6969427,15.0028029 C64.2953392,15.9438916 65.3079915,16.5628957 66.4557614,16.5628957 C67.121351,16.5628957 67.7736483,16.3362821 68.1864407,16.0389733 L68.1864407,13.5891594 C67.2411034,13.5891594 66.7219729,13.0368292 66.7219729,12.0315313" id="Fill-10"></path>
                    <path d="M45.0305329,13.448522 C43.3797156,13.448522 42.035111,12.0187193 42.035111,10.263431 C42.035111,8.50801309 43.3797156,7.07821042 45.0305329,7.07821042 C46.6813502,7.07821042 48.0258327,8.50801309 48.0258327,10.263431 C48.0258327,12.0187193 46.6813502,13.448522 45.0305329,13.448522 M51.6203878,12.0329837 L51.6203878,0 L48.0258327,0 L48.0258327,5.03154115 C47.0317083,4.27151273 45.8139303,3.82218694 44.4979836,3.82218694 C41.1564718,3.82218694 38.440678,6.71006152 38.440678,10.263431 C38.440678,13.8166709 41.1564718,16.7045455 44.4979836,16.7045455 C46.0773391,16.7045455 47.5162099,16.0588909 48.5953324,15.0033318 C49.1937339,15.944128 50.2063945,16.5629397 51.3541741,16.5629397 C52.0197692,16.5629397 52.672072,16.3363965 53.0847458,16.0391802 L53.0847458,13.5901277 C52.1395226,13.5901277 51.6203878,13.0379692 51.6203878,12.0329837" id="Fill-7"></path>
                    <path d="M32.9395065,3.81818182 C31.477998,3.81818182 30.1789616,4.52306529 29.3395424,5.62132456 C28.7461173,4.62358047 27.6805962,3.95765142 26.4652052,3.95765142 C25.7908529,3.95765142 25.1299678,4.18077725 24.7118644,4.47351015 L24.7118644,6.88561908 C25.6695238,6.88561908 26.195489,7.42944836 26.195489,8.41927383 L26.195489,16.2272727 L28.3535894,16.2272727 L29.837214,16.2272727 L29.837214,9.11649419 C29.837214,7.95922849 30.7408807,7.02508869 31.8603946,7.02508869 C32.9799084,7.02508869 33.8836986,7.95922849 33.8836986,9.11649419 L33.8836986,16.2272727 L37.5254237,16.2272727 L37.5254237,8.55874345 C37.5254237,5.93755784 35.475185,3.81818182 32.9395065,3.81818182" id="Fill-12"></path>
                    <path d="M22.7706127,12.1034535 L22.7706127,4.29545455 L20.6125123,4.29545455 L19.1287641,4.29545455 L19.1287641,11.4063608 C19.1287641,12.5634988 18.2250974,13.4976386 17.1057071,13.4976386 C15.9861933,13.4976386 15.082403,12.5634988 15.082403,11.4063608 L15.082403,4.29545455 L11.440678,4.29545455 L11.440678,11.9639838 C11.440678,14.5851694 13.4909166,16.7045455 16.0265951,16.7045455 C17.4881037,16.7045455 18.7872636,15.999662 19.6265592,14.9014027 C20.2199843,15.8991468 21.2855055,16.5650758 22.5007729,16.5650758 C23.1752488,16.5650758 23.8361339,16.3420777 24.2542373,16.0492171 L24.2542373,13.6371082 C23.2967015,13.6371082 22.7706127,13.0934066 22.7706127,12.1034535" id="Fill-14"></path>
                    <path d="M5.44045415,8.70367066 C4.75703224,8.60456768 3.90945383,8.42050089 3.90945383,7.69824291 C3.90945383,6.97598495 4.56557894,6.65039812 5.26277447,6.65039812 C5.95984479,6.65039812 6.6159699,6.96184592 6.6159699,7.92485653 L10.3204473,7.92485653 C10.3204473,5.10677927 8.05130622,3.81818182 5.26277447,3.81818182 C2.47424277,3.81818182 0.205101703,5.14932607 0.205101703,7.75492875 C0.205101703,10.6437012 2.3102115,11.2384484 5.0850948,11.6349898 C5.90525118,11.7482318 6.84836841,11.9464377 6.84836841,12.7960766 C6.84836841,13.6032985 6.15129809,13.8723292 5.26277447,13.8723292 C4.38789926,13.8723292 3.67705532,13.4757877 3.67705532,12.3855259 L0,12.3855259 C0,15.1185096 2.18712543,16.7045455 5.26277447,16.7045455 C8.3384235,16.7045455 10.5254237,15.1185096 10.5254237,12.5837317 C10.5254237,9.56744858 8.3384235,9.12849008 5.44045415,8.70367066" id="Fill-4"></path>
                </g>
            </g>
        </g>
    </g>
</svg>